<svg id="Layer_1" data-name="Layer 1" xmlns="http://www.w3.org/2000/svg" viewBox="0 0 900 650"><defs><style>.cls-1{fill:#1d83c1;}.cls-1,.cls-2{stroke:#231f20;stroke-miterlimit:10;}.cls-2{fill:#e27c3c;}.cls-3{fill:#5183c3;}.cls-4{fill:none;stroke:#010101;stroke-opacity:0.4;}.cls-5{fill:#fff;}</style></defs><rect class="cls-1" width="900" height="650"/><circle class="cls-2" cx="450" cy="325" r="256.27"/><path class="cls-3" d="M255.91,486.21H645.44c34.91-32.12-16.58-43.42-84.38-58.3l-1.66-.36c-78.52-15.09-93.84-30.84-77.46-42.3,16.63-11.62,66-18.82,115-16.37,31.73,1.59,2.86-49.91-44.58-53.19H321.61c-15.23,5.37-39.51,27.3-40.67,44.53,81.45-1,128.26-1.89,90.73,25Z"/><path class="cls-4" d="M255.91,486.21H645.44c34.91-32.12-16.58-43.42-84.38-58.3l-1.66-.36c-78.52-15.09-93.84-30.84-77.46-42.3,16.63-11.62,66-18.82,115-16.37,31.73,1.59,2.86-49.91-44.58-53.19H321.61c-15.23,5.37-39.51,27.3-40.67,44.53,81.45-1,128.26-1.89,90.73,25Z"/><rect class="cls-3" x="280.94" y="129.53" width="339.47" height="161.13" rx="18.77"/><path class="cls-5" d="M317.07,191.41h17.61v1.42l-14.53,22.72-.57.56.83-.11h14.64v2.7H315.42v-1.42l14.49-22.64.6-.64-.9.11H317.07ZM336.17,209a11.61,11.61,0,0,1,.78-4.47,9.19,9.19,0,0,1,2.07-3.15,8.14,8.14,0,0,1,2.89-1.84,9.6,9.6,0,0,1,3.3-.6,9,9,0,0,1,3.83.78,8.5,8.5,0,0,1,2.86,2.14,9.38,9.38,0,0,1,1.76,3.2,12.6,12.6,0,0,1,.6,3.94,11.84,11.84,0,0,1-.75,4.35,9,9,0,0,1-1.95,3.16,8.49,8.49,0,0,1-2.89,1.95,9.61,9.61,0,0,1-3.46.64,9.87,9.87,0,0,1-3.53-.64,8.49,8.49,0,0,1-2.89-1.95,9.37,9.37,0,0,1-1.91-3.16A12.29,12.29,0,0,1,336.17,209Zm3.71,0a12.62,12.62,0,0,0,.34,3,7.68,7.68,0,0,0,1,2.33,5.15,5.15,0,0,0,1.65,1.54,4.92,4.92,0,0,0,2.29.52,4.75,4.75,0,0,0,2.37-.56,4.8,4.8,0,0,0,1.65-1.61,7,7,0,0,0,1-2.37,12,12,0,0,0,.34-2.85,10.68,10.68,0,0,0-.45-3.27,6.5,6.5,0,0,0-1.17-2.29,4.56,4.56,0,0,0-1.69-1.35,4.77,4.77,0,0,0-2-.45,4.87,4.87,0,0,0-2.06.45,5,5,0,0,0-1.69,1.35,7.23,7.23,0,0,0-1.16,2.29A11.39,11.39,0,0,0,339.88,209Zm17.55,0a11.6,11.6,0,0,1,.79-4.47,9,9,0,0,1,2.07-3.15,8.14,8.14,0,0,1,2.89-1.84,9.6,9.6,0,0,1,3.3-.6,9,9,0,0,1,3.83.78,8.36,8.36,0,0,1,2.85,2.14,9.23,9.23,0,0,1,1.77,3.2,12.6,12.6,0,0,1,.6,3.94,11.84,11.84,0,0,1-.75,4.35,9.29,9.29,0,0,1-1.95,3.16,8.49,8.49,0,0,1-2.89,1.95,9.69,9.69,0,0,1-3.46.64,9.83,9.83,0,0,1-3.53-.64,8.49,8.49,0,0,1-2.89-1.95,9.37,9.37,0,0,1-1.91-3.16A12.29,12.29,0,0,1,357.43,209Zm3.72,0a12.13,12.13,0,0,0,.34,3,7.68,7.68,0,0,0,1.05,2.33,5.15,5.15,0,0,0,1.65,1.54,4.92,4.92,0,0,0,2.29.52,4.77,4.77,0,0,0,2.37-.56,5,5,0,0,0,1.65-1.61,7,7,0,0,0,1-2.37,11.47,11.47,0,0,0,.34-2.85,10.68,10.68,0,0,0-.45-3.27,6.33,6.33,0,0,0-1.16-2.29,4.64,4.64,0,0,0-1.69-1.35,4.87,4.87,0,0,0-4.09,0,5,5,0,0,0-1.69,1.35,7.24,7.24,0,0,0-1.17,2.29A11.77,11.77,0,0,0,361.15,209Zm21.38-9.69a4.93,4.93,0,0,1,1.16,2,7.11,7.11,0,0,1,.3,2.1V218.7h-3.6V204a17.22,17.22,0,0,0-.15-2.21,20.68,20.68,0,0,0-.42-2.52Zm10,5.3a3.74,3.74,0,0,0-.57-2.15,1.78,1.78,0,0,0-1.61-.82,3.74,3.74,0,0,0-.79.07l-.83.19a4.08,4.08,0,0,1-2,0,3.56,3.56,0,0,1-1.69-1,14.83,14.83,0,0,1,3.35-1.54,8.07,8.07,0,0,1,2.36-.41,7,7,0,0,1,2.07.3,3.74,3.74,0,0,1,1.69,1,4.77,4.77,0,0,1,1.16,1.88,8.08,8.08,0,0,1,.45,2.89V218.7h-3.6Zm12,0a3.81,3.81,0,0,0-.56-2.15,2,2,0,0,0-1.77-.82,3.09,3.09,0,0,0-.83.11l-.9.19a4.33,4.33,0,0,1-2,0,3.49,3.49,0,0,1-1.73-1.05,14.09,14.09,0,0,1,3.42-1.58,8.78,8.78,0,0,1,2.44-.41,7.11,7.11,0,0,1,2.1.3,4,4,0,0,1,1.76,1,4.79,4.79,0,0,1,1.24,1.88,8.08,8.08,0,0,1,.45,2.89V218.7h-3.6Zm26.74-10.93a4.85,4.85,0,0,0-1.88.34,4,4,0,0,0-1.35.86,3.82,3.82,0,0,0-.86,1.31,4.34,4.34,0,0,0-.27,1.54,3.68,3.68,0,0,0,.94,2.52,11,11,0,0,0,2.37,1.88c.95.57,2,1.15,3,1.72a19,19,0,0,1,3.08,1.92,9.84,9.84,0,0,1,2.36,2.55,6.53,6.53,0,0,1,.94,3.61,6.8,6.8,0,0,1-2.33,5,8.37,8.37,0,0,1-2.78,1.61,11,11,0,0,1-3.79.6A14.42,14.42,0,0,1,429,219c-.65,0-1.32-.14-2-.26a16.57,16.57,0,0,1-2.07-.53,15.27,15.27,0,0,1-2-.79l1-2.44a16.51,16.51,0,0,0,6.42,1.43,6,6,0,0,0,4.13-1.31,4.34,4.34,0,0,0,1.46-3.31,3.87,3.87,0,0,0-.93-2.66,10.3,10.3,0,0,0-2.33-2,34.3,34.3,0,0,0-3-1.65,20.62,20.62,0,0,1-3-1.84,9.79,9.79,0,0,1-2.33-2.48,6.23,6.23,0,0,1-.94-3.53,6.62,6.62,0,0,1,.52-2.62,6.82,6.82,0,0,1,1.58-2.18,7.32,7.32,0,0,1,2.4-1.47,8.69,8.69,0,0,1,3.08-.52,20.59,20.59,0,0,1,3.23.26,26.15,26.15,0,0,1,3.57.86l-1,2.45a16.29,16.29,0,0,0-3-.64A16.92,16.92,0,0,0,431.27,193.66Zm20.86,25.42a9.83,9.83,0,0,1-3.53-.64,8.49,8.49,0,0,1-2.89-1.95,9.37,9.37,0,0,1-1.91-3.16,12.29,12.29,0,0,1-.72-4.35,12,12,0,0,1,.72-4.32,9.48,9.48,0,0,1,2-3.15,8,8,0,0,1,2.89-1.92,9,9,0,0,1,3.45-.67,15,15,0,0,1,2.22.18,13,13,0,0,1,2.36.6l-.86,2.44a15,15,0,0,0-2-.41,14.35,14.35,0,0,0-1.73-.11,4.87,4.87,0,0,0-2.06.45,5,5,0,0,0-1.69,1.35,7.24,7.24,0,0,0-1.17,2.29,13.36,13.36,0,0,0,0,6.57,7.13,7.13,0,0,0,1.17,2.29,5,5,0,0,0,1.69,1.35,4.87,4.87,0,0,0,2.06.45,8,8,0,0,0,1.8-.22,14.56,14.56,0,0,0,2.33-.86l.94,2.47a12,12,0,0,1-2.89,1A10.17,10.17,0,0,1,452.13,219.08Zm8.52-.38V190.24h3.49V218.7Zm12.12-14.11a4,4,0,0,0-.52-2.15,1.69,1.69,0,0,0-1.58-.82,2.28,2.28,0,0,0-.75.11l-.79.19a4.21,4.21,0,0,1-2,0,3.56,3.56,0,0,1-1.69-1.05,16.61,16.61,0,0,1,3.31-1.58,7.76,7.76,0,0,1,2.36-.41,6.64,6.64,0,0,1,2,.3,3.74,3.74,0,0,1,1.69,1,5,5,0,0,1,1.12,1.88,8.61,8.61,0,0,1,.42,2.89V218.7h-3.61Zm21.52,2.21a5.64,5.64,0,0,0-.15-2,4.75,4.75,0,0,0-.83-1.65A3.54,3.54,0,0,0,492,202a3.67,3.67,0,0,0-1.69-.41,4.71,4.71,0,0,0-3.87,1.88,8.6,8.6,0,0,0-1.46,5.37,9.9,9.9,0,0,0,.45,3.07,7.74,7.74,0,0,0,1.24,2.37,6.39,6.39,0,0,0,1.91,1.54,5.41,5.41,0,0,0,2.37.52,10.5,10.5,0,0,0,2.44-.26,12.26,12.26,0,0,0,2.78-1.09l.93,2.48a12,12,0,0,1-3.49,1.24,16,16,0,0,1-3,.34,9.1,9.1,0,0,1-3.75-.75,8.82,8.82,0,0,1-2.89-2.14,10.18,10.18,0,0,1-1.81-3.27,12.8,12.8,0,0,1-.63-4.09,12.33,12.33,0,0,1,.63-4.09,8.64,8.64,0,0,1,1.84-3.12,7.76,7.76,0,0,1,2.89-2,9.72,9.72,0,0,1,3.83-.71,6.69,6.69,0,0,1,3.42.86,6.62,6.62,0,0,1,2.4,2.33,7.42,7.42,0,0,1,1.09,3.3,9.66,9.66,0,0,1-.37,3.91H486.33a4.94,4.94,0,0,1,1.13-1.81,2.8,2.8,0,0,1,2.06-.71Zm7.43,2.1a11,11,0,0,1,.71-4.05,10,10,0,0,1,1.95-3.12,8.88,8.88,0,0,1,2.78-1.95,7.77,7.77,0,0,1,3.27-.71,11.3,11.3,0,0,1,1.8.15,8.16,8.16,0,0,1,1.95.48,4.55,4.55,0,0,1-1.38,1.54,3.58,3.58,0,0,1-2.15.53,4.28,4.28,0,0,0-1.91.37,4.43,4.43,0,0,0-1.69,1.24,6.94,6.94,0,0,0-1.16,2.26,10.39,10.39,0,0,0-.45,3.26,13.11,13.11,0,0,0,.33,3,7.51,7.51,0,0,0,1,2.33,4.83,4.83,0,0,0,1.58,1.54,4.3,4.3,0,0,0,2.21.56,6.38,6.38,0,0,0,4.92-2.74V190.24H519v22q0,2.25.15,3.87t.42,2.55H517a5.58,5.58,0,0,1-.75-.82,8.37,8.37,0,0,1-.56-1.21l-.08-.6-.3.64a6.28,6.28,0,0,1-2.67,1.84,8.17,8.17,0,0,1-2.66.53,7.71,7.71,0,0,1-3.53-.79,8.31,8.31,0,0,1-2.59-2.14,10.42,10.42,0,0,1-1.62-3.23A14.86,14.86,0,0,1,501.72,208.9Zm36.86,9.8a5.63,5.63,0,0,1-1.21-2,8.71,8.71,0,0,1-.26-2.14V199.29h3.49V214q0,1,.12,2.25a21.11,21.11,0,0,0,.48,2.48Zm-10.14-5.29a3.94,3.94,0,0,0,.52,2.14,2,2,0,0,0,1.77.82,3.18,3.18,0,0,0,.75-.07,8.45,8.45,0,0,1,.86-.23,4.37,4.37,0,0,1,2,0,3.53,3.53,0,0,1,1.73,1.05,15.09,15.09,0,0,1-3.38,1.61,9,9,0,0,1-2.37.38,7.11,7.11,0,0,1-2.1-.3,4,4,0,0,1-1.73-1,5.07,5.07,0,0,1-1.2-1.84,9,9,0,0,1-.41-2.93V199.29h3.53Zm22.45,5.29h-3.42V190.24h3.42Zm17.83-11.9a5.64,5.64,0,0,0-.15-2,4.75,4.75,0,0,0-.83-1.65,3.54,3.54,0,0,0-1.31-1.09,3.67,3.67,0,0,0-1.69-.41,4.71,4.71,0,0,0-3.87,1.88,8.6,8.6,0,0,0-1.46,5.37,9.9,9.9,0,0,0,.45,3.07,7.74,7.74,0,0,0,1.24,2.37,6.39,6.39,0,0,0,1.91,1.54,5.41,5.41,0,0,0,2.37.52,10.5,10.5,0,0,0,2.44-.26A12.26,12.26,0,0,0,570.6,215l.93,2.48a12,12,0,0,1-3.49,1.24,16,16,0,0,1-3,.34,9.13,9.13,0,0,1-3.75-.75,8.82,8.82,0,0,1-2.89-2.14,10.18,10.18,0,0,1-1.81-3.27,12.8,12.8,0,0,1-.63-4.09,12.33,12.33,0,0,1,.63-4.09,8.64,8.64,0,0,1,1.84-3.12,7.76,7.76,0,0,1,2.89-2,9.72,9.72,0,0,1,3.83-.71,6.69,6.69,0,0,1,3.42.86,6.62,6.62,0,0,1,2.4,2.33,7.42,7.42,0,0,1,1.09,3.3,9.66,9.66,0,0,1-.37,3.91H560.76a4.94,4.94,0,0,1,1.13-1.81,2.8,2.8,0,0,1,2.06-.71Zm10.77-7.51a3.53,3.53,0,0,1,.83,1.39,13.14,13.14,0,0,1,.45,1.61V203l.3-.68a6.24,6.24,0,0,1,2.1-2.32,5,5,0,0,1,2.89-.94,7.11,7.11,0,0,1,1.84.3l-.45,2.93a6.2,6.2,0,0,0-1.05-.19,7,7,0,0,0-.75,0,4.33,4.33,0,0,0-1.73.38,4,4,0,0,0-1.54,1.09,6.06,6.06,0,0,0-1.12,1.95,8.77,8.77,0,0,0-.42,2.89V218.7H577.5V205.86c0-1.15,0-2.31-.15-3.49a22.61,22.61,0,0,0-.45-3.08Z"/></svg>